<?xml version="1.0" standalone="no"?>
<!DOCTYPE svg PUBLIC "-//W3C//DTD SVG 20010904//EN"
 "http://www.w3.org/TR/2001/REC-SVG-20010904/DTD/svg10.dtd">
<svg version="1.0" xmlns="http://www.w3.org/2000/svg"
 width="512.000000pt" height="512.000000pt" viewBox="0 0 512.000000 512.000000"
 preserveAspectRatio="xMidYMid meet">

<g transform="translate(0.000000,512.000000) scale(0.100000,-0.100000)"
fill="#000000" stroke="none">
<path d="M510 4858 c-25 -13 -55 -39 -68 -58 -21 -30 -23 -44 -20 -105 3 -45
13 -92 30 -132 29 -72 28 -73 -60 -73 -70 0 -117 -26 -138 -75 -18 -44 -18
-69 1 -109 28 -59 52 -65 362 -99 l286 -32 13 -36 c27 -78 64 -369 64 -503 l0
-49 -27 35 c-40 51 -86 80 -136 85 -58 7 -106 -16 -157 -75 l-40 -45 4 69 c3
38 11 134 17 214 9 112 9 151 0 168 -22 40 -100 42 -121 1 -32 -59 -53 -384
-40 -607 24 -402 117 -678 251 -748 39 -20 103 -18 148 6 217 110 318 853 196
1436 l-7 30 579 -63 c418 -46 588 -69 613 -81 43 -21 185 -160 195 -191 5 -17
-6 -43 -44 -105 -120 -196 -162 -364 -165 -651 -1 -170 12 -246 74 -435 67
-206 184 -453 355 -750 l72 -125 18 -163 c17 -160 17 -201 -3 -253 l-11 -26
-53 14 c-37 10 -81 13 -143 9 -85 -5 -101 -2 -295 49 -113 29 -259 65 -325 79
-286 59 -664 93 -925 82 -188 -8 -891 -73 -922 -85 -26 -10 -60 -45 -77 -78
-6 -13 -11 -75 -11 -151 0 -118 2 -132 23 -163 12 -19 39 -43 58 -53 35 -19
37 -19 377 13 447 42 625 53 750 45 56 -3 102 -9 102 -11 0 -3 -16 -36 -36
-73 -35 -68 -38 -70 -225 -200 -103 -72 -197 -142 -208 -156 -30 -38 -44 -90
-37 -139 10 -65 109 -203 166 -232 52 -27 118 -30 162 -7 33 17 400 269 459
315 25 19 68 86 143 218 59 105 113 194 119 200 8 6 59 -3 147 -25 218 -55
596 -141 715 -163 143 -26 385 -57 555 -71 74 -5 158 -12 185 -14 49 -4 54 -7
140 -96 180 -184 295 -260 394 -260 82 0 130 19 181 70 51 51 75 108 89 214 6
38 15 72 21 76 7 4 55 10 108 14 111 8 403 46 539 71 164 31 185 57 190 245 4
116 2 128 -19 164 -13 21 -39 48 -58 58 -42 23 -69 21 -285 -16 -169 -28 -434
-60 -442 -53 -3 3 1 64 7 136 26 281 -41 904 -199 1846 -63 371 -66 403 -81
810 -11 292 -23 354 -88 480 -44 85 -206 252 -294 304 -90 52 -216 92 -316 98
-94 6 -599 -21 -722 -38 -144 -21 -256 -77 -370 -185 l-65 -62 -465 -26 c-256
-14 -491 -28 -524 -31 -53 -4 -57 -3 -50 13 4 9 15 48 25 86 24 89 17 137 -28
186 -66 74 -163 75 -270 4 -29 -18 -62 -34 -73 -34 -11 0 -39 14 -62 30 -41
30 -123 60 -163 60 -11 0 -41 -10 -65 -22z m125 -153 c105 -63 116 -67 180
-63 52 3 71 10 125 46 35 24 71 41 79 40 20 -5 17 -42 -10 -114 -35 -94 -32
-92 -209 -100 l-156 -7 -33 72 c-38 83 -52 151 -30 151 8 0 32 -11 54 -25z
m2784 10 c201 -48 405 -245 449 -435 14 -58 27 -250 17 -250 -4 0 -20 9 -36
20 -58 42 -240 122 -336 147 -127 34 -353 39 -442 10 -113 -36 -305 -17 -516
50 l-90 29 -7 61 c-7 66 -31 121 -74 172 -24 29 -25 33 -11 49 25 28 119 81
183 103 47 17 113 25 324 39 341 22 459 24 539 5z m-1148 -297 c50 -54 54
-135 9 -196 -17 -23 -38 -42 -48 -42 -30 0 -1546 170 -1557 174 -5 3 17 5 50
6 33 1 353 19 710 39 810 48 808 48 836 19z m249 -308 c223 -71 442 -89 589
-50 105 28 223 26 346 -5 112 -28 280 -105 370 -170 72 -51 68 -38 80 -259 4
-60 13 -146 21 -190 21 -118 26 -110 -68 -102 -186 16 -364 63 -498 130 -112
56 -178 105 -288 214 -166 165 -251 210 -404 220 l-87 5 -26 37 c-15 21 -57
68 -95 104 -44 42 -67 72 -63 81 7 20 14 19 123 -15z m276 -399 c40 -21 96
-68 166 -139 l106 -107 80 -200 c44 -110 94 -240 112 -290 44 -123 84 -157
138 -119 50 34 48 52 -29 252 -39 103 -73 195 -76 204 -5 16 2 15 51 -7 76
-34 195 -70 294 -91 l82 -17 0 -158 c0 -508 81 -1007 197 -1219 48 -88 150
-241 214 -320 l52 -64 -12 -106 c-6 -58 -16 -133 -21 -167 -5 -34 -16 -164
-25 -290 -20 -315 -37 -363 -128 -363 -28 0 -54 10 -95 37 -112 74 -356 338
-568 615 -73 95 -75 100 -59 118 28 31 44 91 45 168 l0 72 45 0 c137 0 224
136 181 284 -9 31 -33 86 -53 122 -30 55 -35 72 -30 110 3 27 15 56 31 77 79
97 81 101 81 221 0 135 -27 269 -62 303 -28 29 -70 29 -100 1 -28 -26 -28 -37
-3 -158 11 -52 20 -119 20 -149 0 -48 -5 -60 -39 -105 -66 -86 -75 -112 -76
-201 0 -76 2 -85 49 -178 45 -88 49 -101 40 -135 l-9 -37 -74 -3 c-122 -5
-151 -40 -151 -187 0 -57 -4 -84 -10 -80 -16 10 -226 331 -325 495 -104 174
-290 548 -339 681 -93 253 -114 384 -97 593 18 208 56 330 150 481 21 33 41
68 44 79 12 31 127 18 203 -23z m-1969 -173 c40 -44 80 -150 108 -283 15 -72
14 -75 -14 -189 -29 -114 -82 -233 -108 -243 -36 -14 -91 86 -129 235 -13 52
-24 111 -24 132 0 86 71 300 118 353 20 22 24 22 49 -5z m3147 -385 c53 -261
162 -1055 189 -1388 l5 -60 -21 28 c-50 65 -130 218 -156 302 -71 219 -121
636 -121 1001 l0 144 49 0 c46 0 50 -2 55 -27z m-955 -1813 c44 -62 79 -115
77 -117 -4 -5 -196 24 -202 30 -2 2 3 21 11 41 9 21 19 66 22 102 3 35 7 63 9
61 1 -1 39 -54 83 -117z m-1664 50 c293 -20 482 -52 851 -146 206 -52 517
-124 538 -124 10 0 26 -77 26 -122 0 -45 -2 -48 -27 -48 -33 0 -282 55 -548
121 -306 76 -331 81 -376 69 -21 -6 -50 -21 -64 -33 -14 -12 -76 -111 -138
-219 l-112 -197 -218 -151 c-119 -82 -223 -150 -230 -150 -22 0 -107 108 -107
137 0 6 86 71 192 145 208 145 223 160 295 303 50 99 58 146 30 189 -35 53
-68 59 -332 59 -191 0 -307 -7 -565 -32 -179 -17 -346 -33 -372 -37 l-48 -6 0
86 c0 81 1 86 23 90 29 6 572 56 712 66 165 11 303 11 470 0z m3613 -337 l-3
-88 -65 -12 c-118 -21 -353 -53 -487 -66 l-133 -13 0 75 c0 42 4 81 8 87 4 6
81 18 172 28 91 10 237 30 325 46 88 15 166 28 173 29 10 1 12 -20 10 -86z
m-1876 18 c76 -9 139 -19 141 -22 1 -2 29 -38 62 -79 32 -41 63 -81 68 -88 11
-14 18 -14 -243 13 -80 9 -158 18 -175 21 l-30 5 0 85 c0 98 -21 91 177 65z"/>
<path d="M2731 4544 c-28 -35 -26 -65 4 -94 14 -13 25 -29 25 -36 0 -18 49
-54 72 -54 11 0 33 13 49 29 16 16 42 32 59 36 32 7 70 47 70 75 0 10 -9 29
-21 44 -20 25 -24 26 -129 26 -105 0 -109 -1 -129 -26z"/>
</g>
</svg>
